# Made in Blockbench 5.1.6
mtllib snowpile.mtl

o circle
v 0 0.05 0
v 0.0502404735808355 0 0.21250000000000002
v 0.14350952641916448 0 0.15600952641916452
v 0.16249999999999998 0 0.025240473580835497
v 0.1875 0 -0.05024047358083552
v 0.16225952641916447 0 -0.1560095264191645
v 0.050240473580835554 0 -0.21874999999999994
v -0.06274047358083543 0 -0.1875
v -0.1560095264191645 0 -0.1310095264191645
v -0.16874999999999998 0 -0.05024047358083548
v -0.14374999999999996 0 0.06274047358083541
v -0.1372595264191645 0 0.12475952641916443
v -0.050240473580835485 0 0.1875
vt 0.7477144370844336 0.29178552690159254
vt 0.7340810852684262 0.5557211523380065
vt 0.3906211046141414 0.5412343759899605
vt 0.7340810852684262 0.5557211523380065
vt 0.7525424612320349 0.7136709172081395
vt 0.39061444498889264 0.5412340950940571
vt 0.7525424612320349 0.7136709172081395
vt 0.6642649979189007 0.9124368653160793
vt 0.39062746236958196 0.5412402970890879
vt 0.6642649979189006 0.9124368653160791
vt 0.4228679855086897 1
vt 0.3906246221716514 0.5412364442853315
vt 0.3347906977971762 0.9977239362965469
vt 0.1418760623073713 0.864492011016471
vt 0.39062167647771695 0.5412280437141788
vt 0.14187606230737132 0.8644920110164709
vt 0.0013637887679650573 0.6977196913414508
vt 0.39061151391651205 0.5412412507404171
vt 0.0013637887679650573 0.6977196913414508
vt 0.024599103556632806 0.5358412367746941
vt 0.3906205834505495 0.5412376047678105
vt 0.024599103556632806 0.5358412367746941
vt 0.1357237768630256 0.33284163675649836
vt 0.39062894170339785 0.5412377279961197
vt 0.1357237768630256 0.33284163675649836
vt 0.18348838944952833 0.21763855762789475
vt 0.39062190778916417 0.5412319774644139
vt 0.18348838944952833 0.21763855762789475
vt 0.3836641719910636 0.14039399477629977
vt 0.39062681349668016 0.5412396413842108
vt 0.3836641719910636 0.14039399477629977
vt 0.5907516719910636 0.14039399477629977
vt 0.3906266719910636 0.5412314947762997
vt 0.5907516719910636 0.14039399477629977
vt 0.7477144370844336 0.29178552690159254
vt 0.3906274446924405 0.5412299471051535
vn 0.2878908233065951 0.9567502135133975 0.04180792745304964
vn 0.27965120558230594 0.9556234418138484 0.09262311089688874
vn 0.24271176303577707 0.9683678308522707 -0.05792015413077922
vn 0.11049137036063962 0.9741017183498236 -0.19727518694389565
vn -0.06544453724925832 0.9693987218033588 -0.23660754575931126
vn -0.1299984178094957 0.9680042637917847 -0.21463493808779827
vn -0.2720598350407164 0.9613229341626601 -0.04291459437664515
vn -0.301672847292901 0.9510717772340287 0.06675303554970652
vn -0.31545727439213345 0.9483653387144722 0.033013517808177954
vn -0.15534734572153897 0.9640764444666101 0.21546185602535792
vn -0.060234117608772335 0.9683809902043077 0.24209524755107692
vn 0.12120066343047789 0.9722482467844924 0.20010933463607505
usemtl m_272c40d9-1f3e-f028-2482-02fc7631d5ac
f 3/1/1 4/2/1 1/3/1
f 4/4/2 5/5/2 1/6/2
f 5/7/3 6/8/3 1/9/3
f 6/10/4 7/11/4 1/12/4
f 7/13/5 8/14/5 1/15/5
f 8/16/6 9/17/6 1/18/6
f 9/19/7 10/20/7 1/21/7
f 10/22/8 11/23/8 1/24/8
f 11/25/9 12/26/9 1/27/9
f 12/28/10 13/29/10 1/30/10
f 13/31/11 2/32/11 1/33/11
f 2/34/12 3/35/12 1/36/12