# Made in Blockbench 5.1.6
mtllib room.mtl

o plane
v 2.5 0 1.75
v 2.5 0 -1.75
v -2.5 0 1.75
v -2.5 0 -1.75
vt 0.3125 0.78125
vt 0.3125 1
vt 0 1
vt 0 0.78125
vn 0 1 0
usemtl m_c9044baa-c599-84f2-7a0b-ec629cc62ae1
f 1/1/1 2/2/1 4/3/1 3/4/1
o plane
v 2.5 0 -1.7499999999999998
v 2.5 2.5 -1.7500000000000002
v -2.5 0 -1.7499999999999998
v -2.5 2.5 -1.7500000000000002
vt 0.3125 0.62109375
vt 0.3125 0.77734375
vt 0 0.77734375
vt 0 0.62109375
vn 0 2.220446049250313e-16 1
usemtl m_c9044baa-c599-84f2-7a0b-ec629cc62ae1
f 5/5/2 6/6/2 8/7/2 7/8/2
o plane
v 2.5 2.5 1.7500000000000002
v 2.5 0 1.7499999999999998
v -2.5 2.5 1.7500000000000002
v -2.5 0 1.7499999999999998
vt 0.62890625 0.84375
vt 0.62890625 1
vt 0.31640625 1
vt 0.31640625 0.84375
vn 0 2.220446049250313e-16 -1
usemtl m_c9044baa-c599-84f2-7a0b-ec629cc62ae1
f 9/9/3 10/10/3 12/11/3 11/12/3
o plane
v 2.5000000000000004 2.5 1.75
v 2.5000000000000004 2.5 -1.75
v 2.4999999999999996 0 1.75
v 2.4999999999999996 0 -1.75
vt 0.47265625 0.62109375
vt 0.47265625 0.83984375
vt 0.31640625 0.83984375
vt 0.31640625 0.62109375
vn -1 2.220446049250313e-16 0
usemtl m_c9044baa-c599-84f2-7a0b-ec629cc62ae1
f 13/13/4 14/14/4 16/15/4 15/16/4
o plane
v -2.4999999999999996 0 1.75
v -2.4999999999999996 0 -1.75
v -2.5000000000000004 2.5 1.75
v -2.5000000000000004 2.5 -1.75
vt 0.15625 0.3984375
vt 0.15625 0.6171875
vt 0 0.6171875
vt 0 0.3984375
vn 1 2.220446049250313e-16 0
usemtl m_c9044baa-c599-84f2-7a0b-ec629cc62ae1
f 17/17/5 18/18/5 20/19/5 19/20/5