# Made in Blockbench 5.1.6
mtllib lamppost.mtl

o cylinder
v -2.6020852139652106e-18 0 -2.6020852139652106e-18
v -2.6020852139652106e-18 3.5 -2.6020852139652106e-18
v 0.025120236790417742 0 0.09375
v 0.025120236790417742 3.5 0.09375
v 0.06862976320958224 0 0.06862976320958225
v 0.06862976320958224 3.5 0.06862976320958225
v 0.09375 0 0.025120236790417742
v 0.09375 3.5 0.025120236790417742
v 0.09375 0 -0.025120236790417763
v 0.09375 3.5 -0.025120236790417763
v 0.06862976320958225 0 -0.06862976320958224
v 0.06862976320958225 3.5 -0.06862976320958224
v 0.025120236790417774 0 -0.09374999999999997
v 0.025120236790417774 3.5 -0.09374999999999997
v -0.02512023679041771 0 -0.09375
v -0.02512023679041771 3.5 -0.09375
v -0.06862976320958224 0 -0.06862976320958225
v -0.06862976320958224 3.5 -0.06862976320958225
v -0.09374999999999997 0 -0.025120236790417742
v -0.09374999999999997 3.5 -0.025120236790417742
v -0.09375 0 0.0251202367904177
v -0.09375 3.5 0.0251202367904177
v -0.06862976320958225 0 0.06862976320958224
v -0.06862976320958225 3.5 0.06862976320958224
v -0.025120236790417742 0 0.09375
v -0.025120236790417742 3.5 0.09375
vt 0.554128125 0.866628125
vt 0.539621875 0.875
vt 0.53125 0.84375
vt 0.1275125 0.1875
vt 0.14425625 0.1875
vt 0.14425625 1
vt 0.1275125 1
vt 0.539621875 0.71875
vt 0.554128125 0.727121875
vt 0.53125 0.75
vt 0.5625 0.852121875
vt 0.554128125 0.866628125
vt 0.53125 0.84375
vt 0.00027499999999999747 0.1875
vt 0.01701875 0.1875
vt 0.01701875 1
vt 0.00027499999999999747 1
vt 0.554128125 0.727121875
vt 0.5625 0.741628125
vt 0.53125 0.75
vt 0.5625 0.835378125
vt 0.5625 0.852121875
vt 0.53125 0.84375
vt 0.01701875 0.1875
vt 0.0337625 0.1875
vt 0.0337625 1
vt 0.01701875 1
vt 0.5625 0.741628125
vt 0.5625 0.758371875
vt 0.53125 0.75
vt 0.554128125 0.820871875
vt 0.5625 0.835378125
vt 0.53125 0.84375
vt 0.0337625 0.1875
vt 0.05050625 0.1875
vt 0.05050625 1
vt 0.0337625 1
vt 0.5625 0.758371875
vt 0.554128125 0.772878125
vt 0.53125 0.75
vt 0.539621875 0.8125
vt 0.554128125 0.820871875
vt 0.53125 0.84375
vt 0.281525 0.1875
vt 0.29826874999999997 0.1875
vt 0.29826874999999997 1
vt 0.281525 1
vt 0.554128125 0.772878125
vt 0.539621875 0.78125
vt 0.53125 0.75
vt 0.522878125 0.8125
vt 0.539621875 0.8125
vt 0.53125 0.84375
vt 0.29826874999999997 0.1875
vt 0.31501250000000003 0.1875
vt 0.31501250000000003 1
vt 0.29826874999999997 1
vt 0.539621875 0.78125
vt 0.522878125 0.78125
vt 0.53125 0.75
vt 0.508371875 0.820871875
vt 0.522878125 0.8125
vt 0.53125 0.84375
vt 0.31501250000000003 0.1875
vt 0.33175625 0.1875
vt 0.33175625 1
vt 0.31501250000000003 1
vt 0.522878125 0.78125
vt 0.508371875 0.772878125
vt 0.53125 0.75
vt 0.5 0.835378125
vt 0.508371875 0.820871875
vt 0.53125 0.84375
vt 0.187775 0.1875
vt 0.20451875 0.1875
vt 0.20451875 1
vt 0.187775 1
vt 0.508371875 0.772878125
vt 0.5 0.758371875
vt 0.53125 0.75
vt 0.5 0.852121875
vt 0.5 0.835378125
vt 0.53125 0.84375
vt 0.20451875 0.1875
vt 0.2212625 0.1875
vt 0.2212625 1
vt 0.20451875 1
vt 0.5 0.758371875
vt 0.5 0.741628125
vt 0.53125 0.75
vt 0.508371875 0.866628125
vt 0.5 0.852121875
vt 0.53125 0.84375
vt 0.2212625 0.1875
vt 0.23800625 0.1875
vt 0.23800625 1
vt 0.2212625 1
vt 0.5 0.741628125
vt 0.508371875 0.727121875
vt 0.53125 0.75
vt 0.522878125 0.875
vt 0.508371875 0.866628125
vt 0.53125 0.84375
vt 0.094025 0.1875
vt 0.11076875 0.1875
vt 0.11076875 1
vt 0.094025 1
vt 0.508371875 0.727121875
vt 0.522878125 0.71875
vt 0.53125 0.75
vt 0.539621875 0.875
vt 0.522878125 0.875
vt 0.53125 0.84375
vt 0.11076875 0.1875
vt 0.1275125 0.1875
vt 0.1275125 1
vt 0.11076875 1
vt 0.522878125 0.71875
vt 0.539621875 0.71875
vt 0.53125 0.75
vn 0 -1 0
vn 0.49999999999999994 0 0.8660254037844387
vn 0 1 0
vn 0 -1 0
vn 0.8660254037844388 0 0.5000000000000001
vn 0 1 0
vn 0 -1 0
vn 1 0 0
vn 0 1 0
vn 0 -1 0
vn 0.8660254037844386 0 -0.5000000000000001
vn 0 1 0
vn 0 -1 0
vn 0.49999999999999994 0 -0.8660254037844387
vn 0 1 0
vn 0 -1 0
vn 5.524544980845172e-16 0 -1
vn 0 1 0
vn 0 -1 0
vn -0.4999999999999996 0 -0.8660254037844389
vn 0 1 0
vn 0 -1 0
vn -0.866025403784439 0 -0.4999999999999996
vn 0 1 0
vn 0 -1 0
vn -1 0 -5.524544980845176e-16
vn 0 1 0
vn 0 -1 0
vn -0.8660254037844389 0 0.4999999999999996
vn 0 1 0
vn 0 -1 0
vn -0.5000000000000001 0 0.8660254037844388
vn 0 1 0
vn 0 -1 0
vn 0 0 1
vn 0 1 0
usemtl m_83e88f92-41fb-cbcb-4be8-a25ce0ee5992
f 5/1/1 3/2/1 1/3/1
f 3/4/2 5/5/2 6/6/2 4/7/2
f 4/8/3 6/9/3 2/10/3
f 7/11/4 5/12/4 1/13/4
f 5/14/5 7/15/5 8/16/5 6/17/5
f 6/18/6 8/19/6 2/20/6
f 9/21/7 7/22/7 1/23/7
f 7/24/8 9/25/8 10/26/8 8/27/8
f 8/28/9 10/29/9 2/30/9
f 11/31/10 9/32/10 1/33/10
f 9/34/11 11/35/11 12/36/11 10/37/11
f 10/38/12 12/39/12 2/40/12
f 13/41/13 11/42/13 1/43/13
f 11/44/14 13/45/14 14/46/14 12/47/14
f 12/48/15 14/49/15 2/50/15
f 15/51/16 13/52/16 1/53/16
f 13/54/17 15/55/17 16/56/17 14/57/17
f 14/58/18 16/59/18 2/60/18
f 17/61/19 15/62/19 1/63/19
f 15/64/20 17/65/20 18/66/20 16/67/20
f 16/68/21 18/69/21 2/70/21
f 19/71/22 17/72/22 1/73/22
f 17/74/23 19/75/23 20/76/23 18/77/23
f 18/78/24 20/79/24 2/80/24
f 21/81/25 19/82/25 1/83/25
f 19/84/26 21/85/26 22/86/26 20/87/26
f 20/88/27 22/89/27 2/90/27
f 23/91/28 21/92/28 1/93/28
f 21/94/29 23/95/29 24/96/29 22/97/29
f 22/98/30 24/99/30 2/100/30
f 25/101/31 23/102/31 1/103/31
f 23/104/32 25/105/32 26/106/32 24/107/32
f 24/108/33 26/109/33 2/110/33
f 3/111/34 25/112/34 1/113/34
f 25/114/35 3/115/35 4/116/35 26/117/35
f 26/118/36 4/119/36 2/120/36
o mesh
v 0.096875 3.50625 0.43125
v 0.096875 3.50625 -0.13124999999999995
v 0.096875 3.44375 0.43125
v 0.096875 3.44375 -0.13124999999999995
v -0.096875 3.50625 0.43125
v -0.096875 3.50625 -0.13124999999999995
v -0.096875 3.44375 0.43125
v -0.096875 3.44375 -0.13124999999999995
vt 0.71875 1
vt 0.5 1
vt 0.5 0.96875
vt 0.71875 0.96875
vt 0.71875 0.90625
vt 0.71875 0.9375
vt 0.5 0.9375
vt 0.5 0.90625
vt 0.375 0.78125
vt 0.44140625 0.78125
vt 0.44140625 1
vt 0.375 1
vt 0.44140625 0.53125
vt 0.44140625 0.75
vt 0.375 0.75
vt 0.375 0.53125
vt 0.56640625 0.65625
vt 0.56640625 0.6875
vt 0.5 0.6875
vt 0.5 0.65625
vt 0.44140625 0.5
vt 0.375 0.5
vt 0.375 0.46875
vt 0.44140625 0.46875
vn 1 0 0
vn -1 0 0
vn 0 1 0
vn 0 -1 0
vn 0 0 1
vn 0 0 -1
usemtl m_83e88f92-41fb-cbcb-4be8-a25ce0ee5992
f 28/121/37 27/122/37 29/123/37 30/124/37
f 33/125/38 31/126/38 32/127/38 34/128/38
f 31/129/39 27/130/39 28/131/39 32/132/39
f 30/133/40 29/134/40 33/135/40 34/136/40
f 29/137/41 27/138/41 31/139/41 33/140/41
f 32/141/42 28/142/42 30/143/42 34/144/42