# Made in Blockbench 5.1.6
mtllib post_office.mtl

o plane
v 2.5 0 2.25
v 2.5 0 -2.25
v -2.5 0 2.25
v -2.5 0 -2.25
vt 0.3125 0.71875
vt 0.3125 1
vt 0 1
vt 0 0.71875
vn 0 1 0
usemtl m_ec435d91-5190-7111-faa8-d1f94a9cb8e5
f 1/1/1 2/2/1 4/3/1 3/4/1
o plane
v 2.5 0 -2.2499999999999996
v 2.5 3 -2.2500000000000004
v -2.5 0 -2.2499999999999996
v -2.5 3 -2.2500000000000004
vt 0.3125 0.52734375
vt 0.3125 0.71484375
vt 0 0.71484375
vt 0 0.52734375
vn 0 2.220446049250313e-16 1
usemtl m_ec435d91-5190-7111-faa8-d1f94a9cb8e5
f 5/5/2 6/6/2 8/7/2 7/8/2
o plane
v -2.5 0 2.2500000000000027
v -2.5 3 2.2499999999999964
v 2.5 0 2.2500000000000036
v 2.5 3 2.2499999999999973
vt 0.62890625 0.8125
vt 0.62890625 1
vt 0.31640625 1
vt 0.31640625 0.8125
vn 1.224646799147353e-16 -2.1094237467877974e-15 -1
usemtl m_ec435d91-5190-7111-faa8-d1f94a9cb8e5
f 9/9/3 10/10/3 12/11/3 11/12/3
o plane
v 2.5000000000000004 3 2.25
v 2.5000000000000004 3 -2.25
v 2.4999999999999996 0 2.25
v 2.4999999999999996 0 -2.25
vt 0.50390625 0.52734375
vt 0.50390625 0.80859375
vt 0.31640625 0.80859375
vt 0.31640625 0.52734375
vn -1 2.220446049250313e-16 0
usemtl m_ec435d91-5190-7111-faa8-d1f94a9cb8e5
f 13/13/4 14/14/4 16/15/4 15/16/4
o plane
v -2.4999999999999996 0 2.25
v -2.4999999999999996 0 -2.25
v -2.5000000000000004 3 2.25
v -2.5000000000000004 3 -2.25
vt 0.1875 0.2421875
vt 0.1875 0.5234375
vt 0 0.5234375
vt 0 0.2421875
vn 1 2.220446049250313e-16 0
usemtl m_ec435d91-5190-7111-faa8-d1f94a9cb8e5
f 17/17/5 18/18/5 20/19/5 19/20/5