# Made in Blockbench 5.1.3
mtllib room.mtl

o plane
v 3.000000000000007 -5.551115123125783e-15 -1.9999999999999958
v 3.0000000000000067 5.551115123125783e-15 2.000000000000004
v 2.9999999999999933 2.9999999999999947 -2.000000000000004
v 2.999999999999993 3.0000000000000053 1.9999999999999958
v 3.0000000000000004 0 2
v 3 0 -2.0000000000000004
v -2.999999999999999 0 2
v -3 0 -2
v 3 0 -1.9999999999999998
v 3 3 -2.0000000000000004
v -3 0 -1.9999999999999996
v -3 3 -2.0000000000000004
v -3 4.440892098500626e-16 2.0000000000000027
v -2.999999999999999 3 1.9999999999999964
v 3 -4.440892098500626e-16 2.0000000000000036
v 3.000000000000001 2.999999999999999 1.9999999999999967
v -2.9999999999999982 0 2
v -3 0 -2
v -3 3 2
v -3.000000000000001 3 -2
vt 0.37890625 0.37109375
vt 0.37890625 0.62109375
vt 0.19140625 0.62109375
vt 0.19140625 0.37109375
vt 0 0.625
vt 0.25 0.625
vt 0.25 1
vt 0 1
vt 0 0.24609375
vt 0.1875 0.24609375
vt 0.1875 0.62109375
vt 0 0.62109375
vt 0.44140625 1
vt 0.25390625 1
vt 0.25390625 0.625
vt 0.44140625 0.625
vt 0.5703125 0.37109375
vt 0.5703125 0.62109375
vt 0.3828125 0.62109375
vt 0.3828125 0.37109375
vn -1 -4.551914400963142e-15 -1.2246467991473586e-16
vn 4.489531368592536e-31 1 -1.1442377452220677e-17
vn -1.1442377452232535e-17 1.9647954822307944e-16 1
vn 4.844981160640446e-17 -2.120866124240017e-15 -1
vn 1 1.11022302462516e-16 -3.216245299353267e-16
usemtl m_7624e0a6-6258-3385-69d4-29b1aba435b7
f 1/1/1 2/2/1 4/3/1 3/4/1
f 5/5/2 6/6/2 8/7/2 7/8/2
f 9/9/3 10/10/3 12/11/3 11/12/3
f 13/13/4 14/14/4 16/15/4 15/16/4
f 17/17/5 18/18/5 20/19/5 19/20/5