# Made in Blockbench 5.1.6
mtllib mailbox.mtl

o cylinder
v 0 0 0
v 0 0.75 0
v 0.016746824526945165 0 0.06249999999999999
v 0.016746824526945165 0.75 0.06249999999999999
v 0.045753175473054825 0 0.04575317547305483
v 0.045753175473054825 0.75 0.04575317547305483
v 0.06249999999999999 0 0.016746824526945165
v 0.06249999999999999 0.75 0.016746824526945165
v 0.06249999999999999 0 -0.016746824526945172
v 0.06249999999999999 0.75 -0.016746824526945172
v 0.04575317547305483 0 -0.045753175473054825
v 0.04575317547305483 0.75 -0.045753175473054825
v 0.016746824526945186 0 -0.062499999999999986
v 0.016746824526945186 0.75 -0.062499999999999986
v -0.01674682452694514 0 -0.0625
v -0.01674682452694514 0.75 -0.0625
v -0.045753175473054825 0 -0.04575317547305484
v -0.045753175473054825 0.75 -0.04575317547305484
v -0.06249999999999999 0 -0.016746824526945158
v -0.06249999999999999 0.75 -0.016746824526945158
v -0.06249999999999999 0 0.016746824526945137
v -0.06249999999999999 0.75 0.016746824526945137
v -0.04575317547305484 0 0.04575317547305482
v -0.04575317547305484 0.75 0.04575317547305482
v -0.01674682452694516 0 0.06249999999999999
v -0.01674682452694516 0.75 0.06249999999999999
vt 0.116628125 0.30412812499999997
vt 0.102121875 0.3125
vt 0.09375 0.28125
vt 0.28376250000000003 0.03125
vt 0.30050625 0.03125
vt 0.30050625 0.40625
vt 0.28376250000000003 0.40625
vt 0.727121875 0.65625
vt 0.741628125 0.664621875
vt 0.71875 0.6875
vt 0.125 0.28962187500000003
vt 0.116628125 0.30412812499999997
vt 0.09375 0.28125
vt 0.594025 0.625
vt 0.61076875 0.625
vt 0.61076875 1
vt 0.594025 1
vt 0.741628125 0.664621875
vt 0.75 0.679128125
vt 0.71875 0.6875
vt 0.125 0.27287812499999997
vt 0.125 0.28962187500000003
vt 0.09375 0.28125
vt 0.61076875 0.625
vt 0.6275125 0.625
vt 0.6275125 1
vt 0.61076875 1
vt 0.75 0.679128125
vt 0.75 0.695871875
vt 0.71875 0.6875
vt 0.116628125 0.25837187500000003
vt 0.125 0.27287812499999997
vt 0.09375 0.28125
vt 0.6275125 0.625
vt 0.64425625 0.625
vt 0.64425625 1
vt 0.6275125 1
vt 0.75 0.695871875
vt 0.741628125 0.710378125
vt 0.71875 0.6875
vt 0.102121875 0.25
vt 0.116628125 0.25837187500000003
vt 0.09375 0.28125
vt 0.344025 0.03125
vt 0.36076874999999997 0.03125
vt 0.36076874999999997 0.40625
vt 0.344025 0.40625
vt 0.741628125 0.710378125
vt 0.727121875 0.71875
vt 0.71875 0.6875
vt 0.085378125 0.25
vt 0.102121875 0.25
vt 0.09375 0.28125
vt 0.36076874999999997 0.03125
vt 0.37751250000000003 0.03125
vt 0.37751250000000003 0.40625
vt 0.36076874999999997 0.40625
vt 0.727121875 0.71875
vt 0.710378125 0.71875
vt 0.71875 0.6875
vt 0.070871875 0.25837187500000003
vt 0.085378125 0.25
vt 0.09375 0.28125
vt 0.37751250000000003 0.03125
vt 0.39425625 0.03125
vt 0.39425625 0.40625
vt 0.37751250000000003 0.40625
vt 0.710378125 0.71875
vt 0.695871875 0.710378125
vt 0.71875 0.6875
vt 0.0625 0.27287812499999997
vt 0.070871875 0.25837187500000003
vt 0.09375 0.28125
vt 0.156525 0.03125
vt 0.17326875 0.03125
vt 0.17326875 0.40625
vt 0.156525 0.40625
vt 0.695871875 0.710378125
vt 0.6875 0.695871875
vt 0.71875 0.6875
vt 0.0625 0.28962187500000003
vt 0.0625 0.27287812499999997
vt 0.09375 0.28125
vt 0.17326875 0.03125
vt 0.1900125 0.03125
vt 0.1900125 0.40625
vt 0.17326875 0.40625
vt 0.6875 0.695871875
vt 0.6875 0.679128125
vt 0.71875 0.6875
vt 0.070871875 0.30412812499999997
vt 0.0625 0.28962187500000003
vt 0.09375 0.28125
vt 0.1900125 0.03125
vt 0.20675625 0.03125
vt 0.20675625 0.40625
vt 0.1900125 0.40625
vt 0.6875 0.679128125
vt 0.695871875 0.664621875
vt 0.71875 0.6875
vt 0.085378125 0.3125
vt 0.070871875 0.30412812499999997
vt 0.09375 0.28125
vt 0.250275 0.03125
vt 0.26701874999999997 0.03125
vt 0.26701874999999997 0.40625
vt 0.250275 0.40625
vt 0.695871875 0.664621875
vt 0.710378125 0.65625
vt 0.71875 0.6875
vt 0.102121875 0.3125
vt 0.085378125 0.3125
vt 0.09375 0.28125
vt 0.26701874999999997 0.03125
vt 0.28376250000000003 0.03125
vt 0.28376250000000003 0.40625
vt 0.26701874999999997 0.40625
vt 0.710378125 0.65625
vt 0.727121875 0.65625
vt 0.71875 0.6875
vn 0 -1 0
vn 0.4999999999999999 0 0.8660254037844387
vn 0 1 0
vn 0 -1 0
vn 0.8660254037844387 0 0.49999999999999994
vn 0 1 0
vn 0 -1 0
vn 1 0 0
vn 0 1 0
vn 0 -1 0
vn 0.8660254037844387 0 -0.49999999999999994
vn 0 1 0
vn 0 -1 0
vn 0.5000000000000002 0 -0.8660254037844387
vn 0 1 0
vn 0 -1 0
vn 4.143408735633879e-16 0 -1
vn 0 1 0
vn 0 -1 0
vn -0.4999999999999995 0 -0.8660254037844389
vn 0 1 0
vn 0 -1 0
vn -0.8660254037844388 0 -0.4999999999999997
vn 0 1 0
vn 0 -1 0
vn -1 0 0
vn 0 1 0
vn 0 -1 0
vn -0.866025403784439 0 0.49999999999999944
vn 0 1 0
vn 0 -1 0
vn -0.49999999999999994 0 0.8660254037844388
vn 0 1 0
vn 0 -1 0
vn 0 0 1
vn 0 1 0
usemtl m_955ccaa2-2cb7-7f97-1662-d6a7abebaa85
f 5/1/1 3/2/1 1/3/1
f 3/4/2 5/5/2 6/6/2 4/7/2
f 4/8/3 6/9/3 2/10/3
f 7/11/4 5/12/4 1/13/4
f 5/14/5 7/15/5 8/16/5 6/17/5
f 6/18/6 8/19/6 2/20/6
f 9/21/7 7/22/7 1/23/7
f 7/24/8 9/25/8 10/26/8 8/27/8
f 8/28/9 10/29/9 2/30/9
f 11/31/10 9/32/10 1/33/10
f 9/34/11 11/35/11 12/36/11 10/37/11
f 10/38/12 12/39/12 2/40/12
f 13/41/13 11/42/13 1/43/13
f 11/44/14 13/45/14 14/46/14 12/47/14
f 12/48/15 14/49/15 2/50/15
f 15/51/16 13/52/16 1/53/16
f 13/54/17 15/55/17 16/56/17 14/57/17
f 14/58/18 16/59/18 2/60/18
f 17/61/19 15/62/19 1/63/19
f 15/64/20 17/65/20 18/66/20 16/67/20
f 16/68/21 18/69/21 2/70/21
f 19/71/22 17/72/22 1/73/22
f 17/74/23 19/75/23 20/76/23 18/77/23
f 18/78/24 20/79/24 2/80/24
f 21/81/25 19/82/25 1/83/25
f 19/84/26 21/85/26 22/86/26 20/87/26
f 20/88/27 22/89/27 2/90/27
f 23/91/28 21/92/28 1/93/28
f 21/94/29 23/95/29 24/96/29 22/97/29
f 22/98/30 24/99/30 2/100/30
f 25/101/31 23/102/31 1/103/31
f 23/104/32 25/105/32 26/106/32 24/107/32
f 24/108/33 26/109/33 2/110/33
f 3/111/34 25/112/34 1/113/34
f 25/114/35 3/115/35 4/116/35 26/117/35
f 26/118/36 4/119/36 2/120/36
o mesh
v 0.1875 0.75 0.3125
v 0.1875 0.75 -0.3125
v -0.1875 0.75 0.3125
v -0.1875 0.75 -0.3125
v -0.1875 1.0446428571428572 0.3125
v -0.1875 1.0446428571428572 -0.3125
v 0.1875 1.0446428571428572 -0.3125
v 0.1875 1.0446428571428572 0.3125
v -0.12187499999999998 1.125 0.3125
v -0.12187499999999998 1.125 -0.3125
v -0.12187499999999998 1.0446428571428572 -0.3125
v -0.12187499999999998 0.75 -0.3125
v -0.12187499999999998 0.75 0.3125
v -0.12187499999999998 1.0446428571428572 0.3125
v 0.12812500000000002 1.125 -0.3125
v 0.12812500000000002 1.125 0.3125
v 0.12812500000000002 1.0446428571428572 0.3125
v 0.12812500000000002 0.75 0.3125
v 0.12812500000000002 0.75 -0.3125
v 0.12812500000000002 1.0446428571428572 -0.3125
vt 0.0328125 0.6875
vt 0.1578125 0.6875
vt 0.1578125 1
vt 0.0328125 1
vt 0.1890625 0.584821875
vt 0.3140625 0.584821875
vt 0.3140625 0.625
vt 0.1890625 0.625
vt 0.5296875 0.625
vt 0.4046875 0.625
vt 0.4046875 0.584821875
vt 0.5296875 0.584821875
vt 0.53125 0.8515625
vt 0.53125 1
vt 0.21875 1
vt 0.21875 0.8515625
vt 0.5296875 0.584821875
vt 0.4046875 0.584821875
vt 0.4046875 0.4375
vt 0.5296875 0.4375
vt 0.1890625 0.4375
vt 0.3140625 0.4375
vt 0.3140625 0.584821875
vt 0.1890625 0.584821875
vt 0.5625 0.584821875
vt 0.5296875 0.584821875
vt 0.5296875 0.4375
vt 0.5625 0.4375
vt 0 0.6875
vt 0.0328125 0.6875
vt 0.0328125 1
vt 0 1
vt 0.15625 0.4375
vt 0.1890625 0.4375
vt 0.1890625 0.584821875
vt 0.15625 0.584821875
vt 0.34375 0.584821875
vt 0.3140625 0.584821875
vt 0.3140625 0.4375
vt 0.34375 0.4375
vt 0.1875 1
vt 0.1578125 1
vt 0.1578125 0.6875
vt 0.1875 0.6875
vt 0.375 0.4375
vt 0.4046875 0.4375
vt 0.4046875 0.584821875
vt 0.375 0.584821875
vt 0 0.34375
vt 0.125 0.34375
vt 0.125 0.65625
vt 0 0.65625
vt 0.53125 0.6640625
vt 0.53125 0.8125
vt 0.21875 0.8125
vt 0.21875 0.6640625
vt 0.59375 0.59375
vt 0.59375 0.54296875
vt 0.90625 0.54296875
vt 0.90625 0.59375
vt 0.4046875 0.625
vt 0.375 0.584821875
vt 0.4046875 0.584821875
vt 0.3140625 0.584821875
vt 0.34375 0.584821875
vt 0.3140625 0.625
vt 0.4375 0.40625
vt 0.4375 0.35546875
vt 0.75 0.35546875
vt 0.75 0.40625
vt 0.15625 0.584821875
vt 0.1890625 0.584821875
vt 0.1890625 0.625
vt 0.5296875 0.625
vt 0.5296875 0.584821875
vt 0.5625 0.584821875
vn 0 -1 0
vn 0 0 1
vn 0 0 -1
vn -1 0 0
vn 0 0 -1
vn 0 0 1
vn 0 0 -1
vn 0 -1 0
vn 0 0 1
vn 0 0 1
vn 0 -1 0
vn 0 0 -1
vn 0 1 0
vn 1 0 0
vn 0.8042689907457173 0.5942654209398905 0
vn 0 0 -1
vn 0 0 1
vn -0.7745321275866416 0.6325345708624238 0
vn 0 0 1
vn 0 0 -1
usemtl m_955ccaa2-2cb7-7f97-1662-d6a7abebaa85
f 38/121/37 45/122/37 44/123/37 39/124/37
f 40/125/38 43/126/38 42/127/38 35/128/38
f 36/129/39 41/130/39 46/131/39 37/132/39
f 29/133/40 31/134/40 32/135/40 30/136/40
f 37/137/41 46/138/41 45/139/41 38/140/41
f 39/141/42 44/142/42 43/143/42 40/144/42
f 32/145/43 37/146/43 38/147/43 30/148/43
f 30/149/44 38/150/44 39/151/44 29/152/44
f 29/153/45 39/154/45 40/155/45 31/156/45
f 34/157/46 43/158/46 44/159/46 27/160/46
f 27/161/47 44/162/47 45/163/47 28/164/47
f 28/165/48 45/166/48 46/167/48 33/168/48
f 35/169/49 42/170/49 41/171/49 36/172/49
f 28/173/50 33/174/50 34/175/50 27/176/50
f 42/177/51 34/178/51 33/179/51 41/180/51
f 41/181/52 33/182/52 46/183/52
f 43/184/53 34/185/53 42/186/53
f 36/187/54 32/188/54 31/189/54 35/190/54
f 31/191/55 40/192/55 35/193/55
f 36/194/56 37/195/56 32/196/56
o mesh
v 0.19375 1.25 -0.15625
v 0.19375 1.25 -0.21875
v 0.19375 0.9375 -0.15625
v 0.19375 0.9375 -0.21875
v 0.18125 1.25 -0.15625
v 0.18125 1.25 -0.21875
v 0.18125 0.9375 -0.15625
v 0.18125 0.9375 -0.21875
vt 0.03125 0.3125
vt 0 0.3125
vt 0 0.15625
vt 0.03125 0.15625
vt 0.71875 0.84375
vt 0.71875 1
vt 0.6875 1
vt 0.6875 0.84375
vt 0.75 0.96875
vt 0.7578125 0.96875
vt 0.7578125 1
vt 0.75 1
vt 0.7578125 0.90625
vt 0.7578125 0.9375
vt 0.75 0.9375
vt 0.75 0.90625
vt 0.4453125 0.15625
vt 0.4453125 0.3125
vt 0.4375 0.3125
vt 0.4375 0.15625
vt 0.5078125 0.3125
vt 0.5 0.3125
vt 0.5 0.15625
vt 0.5078125 0.15625
vn 1 0 0
vn -1 0 0
vn 0 1 0
vn 0 -1 0
vn 0 0 1
vn 0 0 -1
usemtl m_955ccaa2-2cb7-7f97-1662-d6a7abebaa85
f 48/197/57 47/198/57 49/199/57 50/200/57
f 53/201/58 51/202/58 52/203/58 54/204/58
f 51/205/59 47/206/59 48/207/59 52/208/59
f 50/209/60 49/210/60 53/211/60 54/212/60
f 49/213/61 47/214/61 51/215/61 53/216/61
f 52/217/62 48/218/62 50/219/62 54/220/62
o mesh
v 0.19375 1.2499999999999998 0.03125
v 0.19375 1.2499999999999998 -0.15625
v 0.19375 1.1624999999999999 0.03125
v 0.19375 1.1624999999999999 -0.15625
v 0.18125 1.2499999999999998 0.03125
v 0.18125 1.2499999999999998 -0.15625
v 0.18125 1.1624999999999999 0.03125
v 0.18125 1.1624999999999999 -0.15625
vt 0.6875 0.5
vt 0.59375 0.5
vt 0.59375 0.45703125
vt 0.6875 0.45703125
vt 0.78125 0.76953125
vt 0.78125 0.8125
vt 0.6875 0.8125
vt 0.6875 0.76953125
vt 0.5625 0.21875
vt 0.5703125 0.21875
vt 0.5703125 0.3125
vt 0.5625 0.3125
vt 0.6328125 0.21875
vt 0.6328125 0.3125
vt 0.625 0.3125
vt 0.625 0.21875
vt 0.6953125 0.26953125
vt 0.6953125 0.3125
vt 0.6875 0.3125
vt 0.6875 0.26953125
vt 0.7265625 0.5
vt 0.71875 0.5
vt 0.71875 0.45703125
vt 0.7265625 0.45703125
vn 1 0 0
vn -1 0 0
vn 0 1 0
vn 0 -1 0
vn 0 0 1
vn 0 0 -1
usemtl m_955ccaa2-2cb7-7f97-1662-d6a7abebaa85
f 56/221/63 55/222/63 57/223/63 58/224/63
f 61/225/64 59/226/64 60/227/64 62/228/64
f 59/229/65 55/230/65 56/231/65 60/232/65
f 58/233/66 57/234/66 61/235/66 62/236/66
f 57/237/67 55/238/67 59/239/67 61/240/67
f 60/241/68 56/242/68 58/243/68 62/244/68